
<!DOCTYPE svg PUBLIC "-//W3C//DTD SVG 20010904//EN"
 "http://www.w3.org/TR/2001/REC-SVG-20010904/DTD/svg10.dtd">
<svg version="1.0" xmlns="http://www.w3.org/2000/svg"
 viewBox="0 0 856.000000 445.000000"
 preserveAspectRatio="xMidYMid meet">

<g transform="translate(0.000000,445.000000) scale(0.100000,-0.100000)"
fill="#000000" stroke="none">
<path d="M321 4346 l-23 -25 7 -2029 8 -2029 -68 -5 c-51 -3 -71 -9 -81 -23
-21 -28 -17 -82 6 -105 19 -19 33 -20 208 -20 186 0 189 0 211 24 17 18 22 33
19 62 -4 48 -30 64 -105 64 l-53 0 0 476 0 477 905 -4 905 -4 0 -472 0 -473
-54 0 c-69 0 -106 -26 -106 -75 0 -24 7 -39 26 -54 25 -19 40 -21 204 -21 164
0 179 2 204 21 18 14 26 30 26 52 0 56 -31 77 -108 77 l-50 0 -4 2034 c-3
1983 -3 2034 -22 2055 -22 24 -73 28 -101 7 -18 -13 -20 -28 -21 -145 l-1
-131 -902 -3 -901 -2 0 126 c0 118 -1 127 -23 147 -31 30 -77 29 -106 -2z
m1934 -424 c-6 -5 -75 -48 -155 -97 -80 -48 -274 -169 -433 -267 -158 -98
-294 -181 -301 -184 -15 -6 -906 523 -906 538 0 11 164 13 1035 16 423 1 765
-2 760 -6z m2 -1099 c-5 -4 -207 113 -427 248 -263 161 -330 204 -330 210 0 4
7 10 16 13 8 3 153 92 322 197 169 105 332 207 362 225 l55 34 3 -461 c1 -254
1 -464 -1 -466z m-1462 712 c83 -49 210 -126 283 -171 l134 -83 -44 -27 c-59
-38 -645 -402 -685 -426 l-33 -20 0 466 0 465 98 -58 c53 -32 165 -98 247
-146z m649 -395 c44 -28 229 -143 410 -255 l330 -205 -824 0 c-453 0 -820 4
-814 8 11 10 391 252 618 394 94 58 177 107 185 107 7 1 50 -22 95 -49z m761
-614 c-37 -25 -828 -508 -840 -512 -6 -3 -47 16 -91 41 -132 78 -727 445 -754
465 -25 19 -16 20 840 20 729 0 861 -2 845 -14z m-1473 -304 c372 -229 478
-296 478 -302 0 -6 -23 -21 -350 -225 -151 -95 -305 -189 -342 -209 l-68 -38
0 471 c0 259 2 471 5 471 2 0 127 -76 277 -168z m1524 -779 c-2 -2 -168 102
-367 231 -200 130 -368 238 -374 240 -15 8 9 24 388 259 l352 218 3 -472 c1
-260 0 -474 -2 -476z m-828 352 c71 -45 263 -167 522 -330 l174 -110 -774 -6
c-426 -3 -776 -5 -777 -4 -1 0 125 81 280 178 155 97 332 208 392 246 61 38
112 69 115 68 3 -1 33 -20 68 -42z"/>
<path d="M3485 3964 c-20 -48 -81 -204 -135 -348 -54 -143 -151 -396 -215
-561 -65 -165 -144 -365 -175 -445 l-57 -145 175 -3 c97 -1 179 1 182 5 4 5
31 79 61 165 l54 158 295 0 295 0 60 -165 60 -165 191 0 192 0 -150 383 c-83
210 -195 497 -250 637 -55 140 -129 326 -165 413 l-66 157 -157 0 -158 0 -37
-86z m293 -612 c51 -147 92 -270 92 -274 0 -5 -88 -8 -196 -8 -162 0 -195 2
-191 14 37 97 187 518 187 526 0 40 27 -24 108 -258z"/>
<path d="M5195 3958 c-35 -89 -262 -675 -476 -1230 -54 -142 -99 -260 -99
-263 0 -3 82 -4 182 -3 l182 3 55 162 56 163 300 0 300 0 59 -165 60 -165 188
0 c103 0 188 2 188 4 0 2 -50 132 -111 288 -61 155 -194 499 -295 763 -102
264 -190 492 -196 508 l-10 27 -173 0 -173 0 -37 -92z m307 -608 c50 -140 93
-261 95 -267 4 -10 -39 -13 -196 -13 l-201 0 11 28 c6 15 49 135 95 267 104
297 95 274 101 255 3 -8 46 -130 95 -270z"/>
<path d="M6390 3256 l0 -796 274 0 c279 0 431 10 540 35 170 40 281 98 387
204 124 124 183 271 196 487 10 185 -33 384 -112 514 -68 112 -208 222 -351
276 -158 60 -210 66 -586 71 l-348 5 0 -796z m698 469 c84 -20 154 -57 214
-112 108 -102 161 -310 124 -493 -20 -98 -39 -138 -94 -200 -95 -107 -224
-150 -449 -150 l-143 0 0 485 0 485 143 0 c90 0 165 -6 205 -15z"/>
<path d="M7998 3255 l2 -795 185 0 185 0 0 795 0 795 -187 0 -188 0 3 -795z"/>
<path d="M3096 2052 c-6 -10 -176 -452 -176 -458 0 -2 22 -4 50 -4 l49 0 18
50 18 51 94 -3 93 -3 18 -45 c17 -45 18 -45 70 -48 29 -2 50 1 49 6 -2 5 -44
111 -93 236 l-89 226 -48 0 c-26 0 -50 -4 -53 -8z m83 -195 c17 -43 31 -80 31
-82 0 -3 -27 -5 -60 -5 -33 0 -60 3 -60 7 0 9 54 162 56 160 1 -1 16 -37 33
-80z"/>
<path d="M3522 1828 l3 -233 148 -3 147 -3 0 46 0 45 -100 0 -100 0 0 190 0
190 -50 0 -51 0 3 -232z"/>
<path d="M3970 1893 c0 -149 2 -171 21 -210 26 -54 64 -81 131 -95 73 -15 132
2 180 52 47 50 58 102 58 280 l0 140 -50 0 -50 0 0 -155 c0 -178 -8 -206 -64
-225 -43 -14 -77 -5 -108 27 -22 23 -23 32 -26 189 l-3 164 -45 0 -44 0 0
-167z"/>
<path d="M4550 1825 l0 -235 45 0 44 0 3 150 3 150 63 -105 c35 -58 69 -105
75 -105 7 0 42 47 77 105 l65 104 3 -149 3 -150 49 0 50 0 0 235 0 235 -54 0
-54 0 -57 -97 c-32 -54 -64 -106 -70 -116 -11 -15 -21 -4 -81 98 l-69 115 -47
0 -48 0 0 -235z"/>
<path d="M5230 1825 l0 -235 45 0 45 0 0 235 0 235 -45 0 -45 0 0 -235z"/>
<path d="M5520 1825 l0 -235 45 0 44 0 3 150 3 150 108 -150 108 -150 45 0 44
0 0 235 0 235 -48 0 -47 0 3 -145 c3 -80 0 -145 -4 -144 -5 0 -56 65 -113 145
l-104 144 -44 0 -43 0 0 -235z"/>
<path d="M6110 1825 l0 -235 50 0 50 0 0 235 0 235 -50 0 -50 0 0 -235z"/>
<path d="M6390 1908 c0 -168 8 -212 47 -258 38 -46 80 -63 148 -63 64 0 105
16 142 55 45 48 53 87 53 258 l0 160 -50 0 -50 0 0 -161 c0 -96 -4 -168 -11
-181 -17 -32 -70 -49 -113 -37 -62 17 -71 41 -74 221 l-4 158 -44 0 -44 0 0
-152z"/>
<path d="M6970 1825 l0 -235 45 0 44 0 3 152 3 151 65 -106 c36 -59 70 -107
77 -107 6 0 40 47 75 105 35 57 66 104 71 105 4 0 7 -67 7 -150 l0 -150 45 0
45 0 0 236 0 235 -52 -3 -53 -3 -69 -112 -69 -112 -71 114 -70 115 -48 0 -48
0 0 -235z"/>
<path d="M3058 1351 c-99 -32 -143 -114 -104 -190 19 -37 49 -55 130 -81 73
-24 101 -51 85 -82 -25 -46 -106 -46 -159 -1 l-32 26 -31 -31 c-30 -30 -30
-32 -13 -51 33 -36 98 -61 159 -61 71 0 115 17 151 61 25 29 28 39 24 87 -6
69 -31 95 -129 128 -40 15 -80 31 -86 36 -18 15 -16 53 3 69 25 20 91 15 125
-10 l29 -22 30 23 c17 12 30 27 30 34 0 7 -20 25 -44 39 -48 28 -125 40 -168
26z"/>
<path d="M3585 1351 c-85 -22 -146 -82 -171 -167 -53 -184 111 -346 297 -294
20 6 56 27 80 48 l42 38 -35 22 c-44 27 -39 27 -84 -3 -117 -79 -253 47 -199
183 34 83 132 114 205 62 32 -23 33 -23 66 -5 39 21 40 23 18 53 -34 49 -147
82 -219 63z"/>
<path d="M5577 1348 c-20 -6 -60 -30 -87 -55 -59 -53 -86 -125 -77 -204 11
-90 56 -151 137 -188 163 -74 342 54 328 234 -6 71 -25 111 -74 159 -59 57
-141 77 -227 54z m140 -103 c84 -56 83 -202 -2 -255 -65 -40 -156 -15 -189 54
-64 135 72 279 191 201z"/>
<path d="M8080 1351 c-111 -34 -173 -119 -172 -237 1 -138 97 -234 234 -234
64 0 97 10 151 47 l37 26 0 93 0 94 -90 0 -90 0 0 -40 0 -40 50 0 c46 0 50 -2
50 -23 0 -42 -34 -62 -107 -62 -62 0 -66 2 -98 37 -122 133 46 339 182 224
l28 -24 35 31 34 30 -37 33 c-54 46 -141 65 -207 45z"/>
<path d="M4101 1328 c-12 -31 -162 -410 -168 -425 -4 -10 9 -13 45 -13 l50 0
18 45 17 45 93 0 92 0 18 -45 c17 -45 17 -45 65 -45 27 0 49 4 49 8 0 4 -40
106 -88 227 l-88 220 -47 3 c-41 3 -48 0 -56 -20z m93 -201 l25 -67 -64 0 -65
0 11 28 c6 15 20 51 31 81 23 61 23 61 62 -42z"/>
<path d="M4530 1120 l0 -230 50 0 50 0 0 90 0 90 83 0 82 0 0 40 0 40 -82 0
-83 0 0 55 0 55 101 0 100 0 -3 43 -3 42 -147 3 -148 3 0 -231z"/>
<path d="M4990 1120 l0 -230 45 0 45 0 0 90 0 90 85 0 85 0 0 40 0 40 -85 0
-85 0 0 55 0 55 100 0 100 0 0 45 0 45 -145 0 -145 0 0 -230z"/>
<path d="M6040 1120 l0 -230 150 0 150 0 0 40 0 40 -100 0 -100 0 0 190 0 190
-50 0 -50 0 0 -230z"/>
<path d="M6490 1121 l0 -231 119 0 c111 0 122 2 172 28 126 66 160 242 66 348
-54 62 -96 77 -234 82 l-123 4 0 -231z m248 119 c83 -51 81 -191 -3 -246 -14
-9 -54 -19 -90 -22 l-65 -5 0 147 0 146 63 0 c45 0 71 -6 95 -20z"/>
<path d="M7067 1343 c-4 -3 -7 -107 -7 -230 l0 -223 50 0 50 0 0 230 0 230
-43 0 c-24 0 -47 -3 -50 -7z"/>
<path d="M7347 1343 c-4 -3 -7 -107 -7 -230 l0 -223 50 0 49 0 3 145 3 146
105 -146 105 -145 43 0 42 0 0 230 0 230 -45 0 -45 0 0 -147 c-1 -119 -3 -145
-13 -131 -7 9 -54 75 -106 147 l-94 131 -42 0 c-23 0 -45 -3 -48 -7z"/>
<path d="M3530 647 c-49 -16 -123 -93 -138 -143 -26 -89 -10 -174 46 -236 49
-54 102 -78 178 -78 249 -1 318 346 89 451 -45 21 -120 23 -175 6z m167 -108
c53 -50 65 -116 34 -186 -45 -98 -186 -100 -236 -3 -19 38 -19 113 0 151 37
70 144 91 202 38z"/>
<path d="M5793 641 c-47 -22 -69 -50 -78 -102 -13 -71 35 -123 144 -155 51
-15 91 -43 91 -64 0 -5 -9 -19 -20 -30 -30 -30 -97 -27 -145 6 l-38 25 -28
-27 c-28 -26 -28 -28 -11 -47 29 -33 102 -60 162 -60 107 0 170 54 170 146 0
63 -32 96 -121 126 -108 36 -137 71 -87 105 32 23 80 20 121 -8 l35 -24 28 29
c32 34 26 47 -40 78 -53 26 -127 27 -183 2z"/>
<path d="M2910 610 l0 -40 70 0 70 0 0 -185 0 -185 40 0 c22 0 43 1 46 3 3 1
5 84 4 185 l-1 182 71 0 70 0 0 40 0 40 -185 0 -185 0 0 -40z"/>
<path d="M3987 479 c30 -94 62 -196 71 -226 l17 -56 49 0 49 0 48 149 c26 82
50 142 53 134 3 -8 23 -75 46 -147 l41 -133 49 0 48 0 30 93 c17 50 47 145 67
210 20 65 38 124 42 132 4 12 -5 15 -45 15 l-50 0 -16 -52 c-8 -29 -28 -99
-43 -155 -15 -57 -31 -103 -35 -103 -5 0 -8 6 -8 13 0 7 -20 77 -45 155 l-46
142 -42 0 -43 0 -44 -151 c-24 -83 -47 -152 -51 -154 -5 -4 -47 130 -81 258
l-12 47 -52 0 -52 0 55 -171z"/>
<path d="M4740 425 l0 -225 153 0 153 0 -4 40 -4 40 -105 0 -104 0 3 53 3 52
93 3 92 3 0 39 0 40 -95 0 -95 0 0 50 0 50 105 0 105 0 0 40 0 40 -150 0 -150
0 0 -225z"/>
<path d="M5210 425 l0 -225 50 0 50 0 0 80 0 80 28 0 c23 0 33 -10 72 -80 l45
-80 57 0 56 0 -49 82 -50 82 31 24 c87 68 77 196 -20 244 -27 14 -61 18 -152
18 l-118 0 0 -225z m228 129 c28 -19 30 -74 4 -97 -10 -9 -44 -19 -75 -23
l-57 -7 0 72 0 71 53 0 c31 0 61 -6 75 -16z"/>
</g>
</svg>
